<?xml version="1.0" encoding="UTF-8"?>
<svg version="1.1" viewBox="0 0 2048 2044" width="1280" height="1280" xmlns="http://www.w3.org/2000/svg">
<path transform="translate(0)" d="m0 0h2048v2044h-2048z" fill="#62608A"/>
<path transform="translate(789,547)" d="m0 0h471l6 5 8 16 15 35 18 41 12 28 17 39 7 18 2 14v13l-2 12-5 13-6 10-7 9-6 7-13 10-15 8-1 10-1 295-6 7-3 1h-512l-5-3-4-5-1-5-1-300-14-7-13-10-8-8-7-10-8-16-3-10-1-7v-17l3-14 6-16 16-36 12-28 36-83 5-10 6-5z" fill="#FEFEFE"/>
<path transform="translate(1023,789)" d="m0 0 5 5 12 13 11 9 16 8 16 5 21 2 20-3 16-6 11-6 10-8 7-6 8-10 2-3h2l4 6 9 10 10 9 14 8 16 6 22 3h7v280h-49l-1-212-1-10-5-6-4-2h-169l-8 5-3 5-1 220h-235v-280l22-2 12-3 13-5 10-6 10-8 7-7 8-10h3l10 13 11 10 15 9 17 6 21 3 18-2 10-2 13-5 13-8 10-8 9-10z" fill="#62608A"/>
<path transform="translate(1055,907)" d="m0 0h129l1 1v202l-18 1-118-1v-202z" fill="#62608A"/>
<path transform="translate(919,574)" d="m0 0h91v174l-3 13-8 16-9 10-10 8-13 6-16 3h-9l-17-3-15-8-12-11-7-10-5-11-2-7v-18l15-69 16-74z" fill="#62608A"/>
<path transform="translate(1039,574)" d="m0 0h89l2 6 10 48 14 64 10 45v15l-3 11-7 14-11 12-14 9-10 4-13 2h-9l-16-3-16-8-11-9-9-13-6-15-1-6v-175z" fill="#62608A"/>
<path transform="translate(1157,574)" d="m0 0h89l8 16 11 26 18 41 15 35 14 32 5 14 1 6v11l-3 10-6 12-12 13-13 8-10 4-11 2h-12l-16-3-14-7-11-9-9-12-5-10-3-11-3-22-9-42-19-88-5-23z" fill="#62608A"/>
<path transform="translate(802,574)" d="m0 0h89l-3 15-26 120-6 31-2 14-4 13-7 12-6 7-12 9-13 6-7 2-8 1h-10l-16-3-9-4-11-7-9-9-8-13-3-8-1-6v-10l3-12 11-26 13-30 23-53 20-46z" fill="#62608A"/>
<path transform="translate(846,880)" d="m0 0h117l6 3 5 6v107l-3 6-6 4h-121l-7-6-2-5v-105l7-8z" fill="#FEFEFE"/>
<path transform="translate(868,907)" d="m0 0h78l1 1v70l-1 1h-83v-71z" fill="#62608A"/>
<path transform="translate(1068,1273)" d="m0 0h56l9 2 8 6 4 7 1 4v14l-4 10-4 5-8 4-12 1 8 10 10 11 7 8v3h-10l-14-14-9-11-5-6-27-1v31l-1 1h-9z" fill="#FEFEFE"/>
<path transform="translate(965,1409)" d="m0 0h60l8 3 6 7 3 7v17l-4 9-6 6-7 2h-51v32l-1 1h-8l-1-1v-82z" fill="#FEFEFE"/>
<path transform="translate(1063,1409)" d="m0 0h60l7 2 5 4 5 9 1 4v12l-3 9-4 6-6 4-5 1h-51v32l-1 1h-8z" fill="#FEFEFE"/>
<path transform="translate(1288,1273)" d="m0 0 5 1 6 8 12 23 21 41 5 9v3h-9l-4-5-7-13h-54l-9 17-1 1h-10l4-10 12-23 10-19 8-16 7-13z" fill="#FEFEFE"/>
<path transform="translate(1333,1407)" d="m0 0h27l21 2 1 1v8l-17-1-14-1h-10l-13 2-10 5-5 6-3 9-1 7v10l2 12 6 10 6 5 9 3h22l11-4 7-6 3-7 1-15h-34l-1-5 2-2h42l1 1v45l-7 1-3-1v-8l-12 8-10 3-7 1h-12l-13-3-9-5-8-9-4-9-2-10v-21l3-12 6-9 7-6 11-4z" fill="#FEFEFE"/>
<path transform="translate(1198,1409)" d="m0 0h6l10 9 16 17 7 8 10 11 7 8 6 6v2h2l4 5 1-32v-33l1-1h9l1 1v80l-2 3h-6l-8-7-14-15-18-20-11-12-9-10-3-3v66l-1 1h-8l-1-1v-82z" fill="#FEFEFE"/>
<path transform="translate(888,1407)" d="m0 0h20l12 3 10 6 7 8 5 12 1 6v17l-4 16-7 10-9 6-11 4-7 1h-14l-16-4-9-6-6-7-4-9-2-7-1-16 2-13 7-14 8-7 8-4zm0 9-11 4-8 7-4 8-2 8v18l4 11 8 9 9 4 4 1h22l10-4 8-7 4-8 1-5v-21l-4-11-6-8-11-5-4-1z" fill="#FEFEFE"/>
<path transform="translate(981,1273)" d="m0 0h66l1 1v8l-61 1v12l1 15 53 1 1 7-1 1h-55v30h61l1 1v8h-71l-1-3v-79l1-2z" fill="#FEFEFE"/>
<path transform="translate(735,1273)" d="m0 0 7 1 9 8 7 8 14 15 11 12 18 20 3 3 1-67h7l2 1v84l-3 1-5-2-10-10-7-8-7-7-7-8-11-12-7-8-11-12v-2h-2v68h-9l-1-11v-21z" fill="#FEFEFE"/>
<path transform="translate(1182,1272)" d="m0 0h39l10 1 1 1v8l-5 1-19-2h-19l-11 3-4 2-2 11 3 7 8 4 27 5 15 5 6 4 5 10v8l-3 8-5 5-8 5-8 2h-37l-14-2v-8l1-1 18 1h29l11-3 4-4 1-10-1-5-5-2-9-3-23-4-13-4-8-6-4-8v-10l3-9 8-7z" fill="#FEFEFE"/>
<path transform="translate(681,1407)" d="m0 0h25l19 2 1 6-1 3-15-1-12-1h-10l-13 2-5 3h-2l-2 6v8l2 4 9 4 25 5 16 5 6 4 4 5 2 7-1 10-6 8-5 4-11 4-8 1h-18l-21-2-5-2v-7h12l28 1 14-2 6-3 3-3 1-9-3-6-6-3-38-8-10-5-4-5-3-9 1-10 5-8 7-5z" fill="#FEFEFE"/>
<path transform="translate(750,1409)" d="m0 0h8l1 1v36h63v-36l1-1h8l1 1v82l-1 1h-8l-1-1v-38h-63v38l-2 1h-7l-1-1v-82z" fill="#FEFEFE"/>
<path transform="translate(699,1273)" d="m0 0h8l1 1 1 33-1 27-3 9-9 10-12 6-5 1h-22l-10-3-10-6-6-9-3-9v-59h10l1 60 4 8 7 5 10 3h16l10-3 8-6 3-7z" fill="#FEFEFE"/>
<path transform="translate(1073,1417)" d="m0 0h28l21 1 5 3 3 4 1 4v11l-3 7-5 4-3 1h-47l-1-2v-32z" fill="#62608A"/>
<path transform="translate(1078,1282)" d="m0 0h43l10 2 4 6 1 3v13l-3 6-5 4-7 1h-42l-1-1-1-33z" fill="#62608A"/>
<path transform="translate(993,1417)" d="m0 0h12l19 1 6 4 2 5v16l-4 6-6 3h-48v-34z" fill="#62608A"/>
<path transform="translate(867,1273)" d="m0 0h7l5 4 34 66v2l2-1 11-23 8-15 9-19 7-12 4-2h6l-1 6-13 26-10 19-15 29-4 5-3 1-5-3-8-14-16-31-10-19-8-16z" fill="#FEFEFE"/>
<path transform="translate(1353,1273)" d="m0 0h8l1 1v75h61l1 1v8h-71z" fill="#FEFEFE"/>
<path transform="translate(1290,1287)" d="m0 0 3 3 18 36 2 5h-45l2-6 17-34z" fill="#62608A"/>
<path transform="translate(841,1273)" d="m0 0 10 1v84h-10z" fill="#FEFEFE"/>
<path transform="translate(1163,1409)" d="m0 0h7l1 1v82l-1 1h-7l-1-1v-82z" fill="#FEFEFE"/>
</svg>
